<svg xmlns="http://www.w3.org/2000/svg" width="35.559" height="35.548" viewBox="0 0 35.559 35.548">
  <path id="Icon_simple-rust" data-name="Icon simple-rust" d="M35.53,17.563l-1.493-.924q-.019-.218-.042-.435l1.282-1.2a.516.516,0,0,0-.171-.857l-1.639-.613q-.061-.213-.129-.423L34.362,11.7a.513.513,0,0,0-.334-.807L32.3,10.608q-.1-.2-.208-.388l.726-1.595a.509.509,0,0,0-.041-.5.517.517,0,0,0-.445-.228l-1.755.062q-.135-.171-.278-.336l.4-1.708a.515.515,0,0,0-.618-.618l-1.709.4q-.167-.141-.337-.277L28.1,3.669a.51.51,0,0,0-.726-.486l-1.594.727c-.129-.07-.258-.141-.389-.208l-.282-1.73a.516.516,0,0,0-.807-.335L22.879,2.661q-.21-.067-.423-.128L21.843.894a.516.516,0,0,0-.857-.171l-1.2,1.284q-.217-.024-.435-.042L18.432.472a.513.513,0,0,0-.873,0l-.924,1.492c-.146.012-.291.027-.435.042L15,.723a.513.513,0,0,0-.856.171l-.613,1.64c-.142.04-.282.084-.423.128L11.69,1.638a.516.516,0,0,0-.807.335L10.6,3.7q-.2.1-.388.208L8.618,3.183a.513.513,0,0,0-.726.486l.062,1.755c-.114.09-.227.183-.338.278L5.907,5.3a.515.515,0,0,0-.618.618l.4,1.708c-.093.111-.186.223-.276.336L3.66,7.9a.513.513,0,0,0-.486.726L3.9,10.219q-.107.193-.208.388l-1.728.281a.516.516,0,0,0-.334.807l1.023,1.42c-.045.141-.087.281-.129.423l-1.64.613a.516.516,0,0,0-.171.856L2,16.2q-.024.217-.042.435l-1.492.924a.51.51,0,0,0,0,.873l1.492.924c.012.146.027.291.042.435l-1.283,1.2a.513.513,0,0,0,.171.857l1.639.614c.04.142.084.284.129.423L1.63,24.306a.512.512,0,0,0,.336.807l1.728.28c.068.131.136.26.208.389l-.727,1.594a.513.513,0,0,0,.486.726l1.753-.062c.091.114.183.226.278.337l-.4,1.71a.513.513,0,0,0,.618.616l1.709-.4c.111.094.223.186.338.276l-.062,1.755a.51.51,0,0,0,.726.484l1.594-.726c.129.072.258.141.389.208l.282,1.728a.516.516,0,0,0,.807.336l1.42-1.023c.141.045.281.089.423.129l.613,1.639a.511.511,0,0,0,.857.171L16.2,34c.144.016.289.03.435.043l.924,1.493a.514.514,0,0,0,.873,0l.924-1.493c.146-.014.291-.027.435-.043l1.2,1.283a.516.516,0,0,0,.857-.171l.614-1.639c.142-.041.284-.084.423-.129l1.42,1.023a.512.512,0,0,0,.807-.336L25.39,32.3c.131-.068.26-.138.389-.208l1.594.726a.515.515,0,0,0,.726-.485l-.062-1.755c.114-.09.226-.181.336-.276l1.708.4a.514.514,0,0,0,.618-.617l-.4-1.71c.093-.111.186-.223.276-.337l1.755.062a.51.51,0,0,0,.486-.726l-.726-1.594c.07-.129.141-.258.208-.389l1.728-.281a.516.516,0,0,0,.334-.807l-1.023-1.42.129-.423,1.639-.614a.513.513,0,0,0,.171-.857l-1.283-1.2c.015-.144.03-.289.042-.435l1.493-.924a.51.51,0,0,0,0-.873Zm-9.988,12.38a1.058,1.058,0,1,1,1.255-.812,1.058,1.058,0,0,1-1.255.812Zm-.507-3.429a.962.962,0,0,0-1.143.741l-.529,2.472a13.028,13.028,0,0,1-10.837-.051L12,27.2a.96.96,0,0,0-1.143-.739l-2.183.468A12.922,12.922,0,0,1,7.542,25.6h10.62c.12,0,.2-.021.2-.131V21.714c0-.11-.08-.131-.2-.131H15.055V19.2h3.36a2.111,2.111,0,0,1,2.066,1.791c.133.524.426,2.229.627,2.775.2.612,1.013,1.834,1.879,1.834h5.292a1.11,1.11,0,0,0,.192-.02,13.019,13.019,0,0,1-1.2,1.412ZM10.345,29.892a1.058,1.058,0,1,1,.812-1.256,1.058,1.058,0,0,1-.812,1.256ZM6.317,13.554a1.058,1.058,0,1,1-1.382-.507A1.057,1.057,0,0,1,6.317,13.554ZM5.079,16.49l2.274-1.011a.963.963,0,0,0,.489-1.272l-.468-1.059H9.216v8.3H5.5a13,13,0,0,1-.42-4.961Zm9.978-.806V13.238h4.386c.226,0,1.6.262,1.6,1.288,0,.852-1.053,1.158-1.918,1.158H15.057ZM31,17.886c0,.324-.012.646-.036.965H29.627c-.133,0-.187.087-.187.219v.612c0,1.441-.813,1.755-1.525,1.834-.678.076-1.43-.284-1.522-.7a4.586,4.586,0,0,0-2.119-3.561c1.306-.83,2.666-2.054,2.666-3.691a4.181,4.181,0,0,0-2.04-3.431,5.78,5.78,0,0,0-2.79-.918H8.318a12.987,12.987,0,0,1,7.271-4.1l1.626,1.706a.96.96,0,0,0,1.361.032l1.818-1.74a13,13,0,0,1,8.9,6.336l-1.245,2.813a.966.966,0,0,0,.489,1.272l2.4,1.065c.042.426.063.855.063,1.292ZM17.215,3.663a1.057,1.057,0,1,1,0,1.458,1.056,1.056,0,0,1,0-1.458Zm12.355,9.942a1.057,1.057,0,1,1,.537,1.4,1.053,1.053,0,0,1-.537-1.4Z" transform="translate(-0.216 -0.229)" fill="#fff"/>
</svg>
