<svg xmlns="http://www.w3.org/2000/svg" width="192" height="300" viewBox="0 0 192 300">
  <g id="solidity" transform="translate(-1 300)">
    <path id="Path_127" data-name="Path 127" d="M48.3-298.8C46.4-296.4,1-215.1,1-214.2c0,.8,46.3,83.9,47.4,84.9.2.2,11.1-18.8,24.2-42.1L96.5-214h47.8c26.2,0,47.7-.3,47.7-.7s-10.7-19.7-23.7-43L144.5-300H96.9C60-300,49-299.7,48.3-298.8Z" fill="#fff"/>
    <path id="Path_128" data-name="Path 128" d="M121.2-128.3l-24,42.8-47.7.3c-26.2.1-47.5.6-47.3,1,.2.5,10.9,19.6,23.8,42.5L49.4,0H97.1C134,0,145-.3,145.8-1.3,147.6-3.5,193-84.8,193-85.8c0-.7-46.4-83.8-47.5-85C145.4-170.9,134.4-151.8,121.2-128.3Z" fill="#fff"/>
  </g>
</svg>
